<?xml version="1.0" encoding="UTF-8"?>
<svg id="Calque_1" data-name="Calque 1" xmlns="http://www.w3.org/2000/svg" viewBox="0 0 615.36 617.29">
  <defs>
    <style>
      .cls-1 {
        fill: #fff;
      }
    </style>
  </defs>
  <g>
    <path d="M14.86,615.83H7.98c-1.5,0-3,0-4.5,0-1.27,0-2.03-.22-2.45-.69-.45-.51-.59-1.39-.43-2.77,.38-3.21,.61-6.49,.83-9.67,.24-3.35,.48-6.81,.9-10.19,.3-2.45,1.03-4.9,1.73-7.28,.31-1.04,.61-2.08,.89-3.12,.07-.26,.17-.52,.28-.77,.15-.36,.3-.74,.38-1.14,.47-2.55,.9-5.11,1.33-7.67,.91-5.42,1.86-11.02,3.15-16.44,1.16-4.86,2.88-9.69,4.54-14.36,.5-1.4,.99-2.79,1.48-4.19,1.3-3.76,2.87-8.16,4.7-12.38,1.53-3.54,3.01-7.17,4.44-10.69,3.56-8.77,7.24-17.83,12.05-26.02,9.08-15.47,19.81-30.32,30.18-44.69l.28-.38c13.63-18.87,31.27-36.03,57.22-55.64,7.68-5.8,16.17-10.83,24.38-15.69l2.68-1.59c9.93-5.89,18.15-10.37,25.86-14.09,5.14-2.48,10.62-4.51,15.91-6.48,2.15-.8,4.29-1.59,6.42-2.42l2.83-1.1c4.59-1.79,9.34-3.64,14.06-5.28,4.17-1.45,8.62-2.93,13.18-3.86,6.73-1.36,13.62-2.51,20.28-3.62,1.96-.33,3.92-.65,5.88-.99,.79-.13,1.65-.17,2.48-.21,1.57-.07,3.2-.13,4.52-.85,4.62-2.48,9.45-2.68,14.41-2.68h2.92c1.34,0,2.91,0,4.49-.11,.19-.01,.36-.02,.54-.02,1.16,0,1.97,.26,2.47,.8,.52,.56,.74,1.48,.64,2.74-.03,.37-.03,.74-.02,1.11,0,.47,0,.92-.06,1.36-.4,2.89-.76,5.79-1.12,8.7-.85,6.82-1.72,13.88-3.07,20.72-2,10.11-4.58,20.33-7.66,30.38-2.82,9.19-6.59,18.44-9.91,26.61-4,9.83-7.97,19.43-12.58,28.85-3.52,7.18-7.61,14.18-12.18,20.83l-2.3,3.36c-7.24,10.56-14.72,21.48-23.05,31.39-8.82,10.48-18.96,21.13-31.93,33.52-7.92,7.57-16.73,14.7-26.18,21.21-13.74,9.47-26.31,17.28-38.42,23.88-7.89,4.3-16.55,7.54-24.92,10.68-1.62,.61-3.25,1.22-4.86,1.83-4.83,1.84-9.86,3.39-14.72,4.9-2.64,.82-5.37,1.66-8.04,2.54-4.66,1.54-9.37,3.14-13.93,4.7-2.11,.72-6.57,2.24-6.57,2.24-.22,.08-.43,.16-.63,.19-9.68,1.47-19.36,2.94-29.04,4.41l-2.79,.42-.08-.29Z"/>
    <path class="cls-1" d="M285.83,329.26c1,0,1.71,.22,2.1,.64,.42,.45,.59,1.25,.51,2.36-.03,.4-.03,.78-.03,1.15,0,.45,0,.88-.05,1.28-.4,2.9-.76,5.85-1.12,8.7-.85,6.81-1.72,13.86-3.07,20.68-1.99,10.09-4.57,20.3-7.65,30.33-2.82,9.16-6.42,18.01-9.9,26.57-4,9.82-7.96,19.42-12.57,28.82-3.51,7.15-7.59,14.14-12.14,20.77l-2.31,3.37c-7.23,10.55-14.7,21.46-23.01,31.34-8.8,10.47-18.94,21.11-31.89,33.48-7.9,7.55-16.69,14.67-26.12,21.16-13.73,9.46-26.28,17.26-38.38,23.85-7.86,4.28-16.5,7.52-24.85,10.65-1.62,.61-3.25,1.22-4.87,1.83-4.81,1.83-9.84,3.39-14.7,4.89-2.64,.82-5.37,1.66-8.04,2.54-4.65,1.53-9.36,3.14-13.92,4.69-2.12,.72-4.24,1.44-6.36,2.16-.08,.03-.16,.06-.25,.09-.2,.07-.39,.14-.54,.16-9.35,1.42-18.7,2.84-28.05,4.26l-3.34,.51-.06-.23h-4.06s-3.3,0-3.3,0c-1.47,0-2.93,0-4.45,0-1.05,0-1.71-.17-2.03-.53-.34-.38-.44-1.18-.3-2.38,.38-3.22,.61-6.51,.84-9.69,.24-3.34,.48-6.8,.9-10.17,.3-2.4,1.02-4.84,1.71-7.19,.3-1.03,.62-2.09,.89-3.14,.06-.22,.16-.46,.26-.71,.15-.37,.32-.78,.4-1.24,.47-2.55,.91-5.16,1.33-7.67,.91-5.41,1.86-11.01,3.15-16.41,1.16-4.84,2.87-9.65,4.53-14.31,.5-1.4,.99-2.8,1.48-4.2,1.29-3.75,2.86-8.14,4.68-12.34,1.53-3.54,3.01-7.18,4.44-10.7,3.55-8.75,7.23-17.79,12.02-25.96,9.07-15.45,19.79-30.29,30.16-44.65l.28-.38c13.6-18.83,31.21-35.96,57.11-55.54,7.66-5.79,16.14-10.81,24.34-15.67l2.67-1.58c9.92-5.89,18.12-10.36,25.82-14.07,5.13-2.47,10.59-4.5,15.88-6.46,2.11-.78,4.28-1.59,6.41-2.42l2.82-1.1c4.59-1.79,9.34-3.64,14.06-5.28,4.15-1.44,8.59-2.92,13.11-3.84,6.73-1.36,13.63-2.51,20.3-3.63,1.95-.33,3.89-.65,5.84-.98,.76-.13,1.56-.16,2.42-.2,1.63-.07,3.31-.14,4.74-.91,4.51-2.42,9.28-2.62,14.17-2.62,.49,0,.97,0,1.46,0,.49,0,.98,0,1.47,0,1.34,0,2.93-.01,4.51-.11,.17-.01,.34-.02,.51-.02m0-1c-.18,0-.37,0-.57,.02-1.48,.09-2.96,.11-4.45,.11-.98,0-1.95,0-2.93,0-4.97,0-9.92,.21-14.65,2.74-1.91,1.03-4.56,.61-6.85,1-8.74,1.48-17.49,2.86-26.18,4.61-4.49,.91-8.9,2.37-13.24,3.87-5.69,1.97-11.3,4.21-16.91,6.39-7.48,2.91-15.15,5.44-22.37,8.91-8.85,4.26-17.45,9.09-25.9,14.11-9.22,5.47-18.58,10.87-27.1,17.31-21.39,16.17-41.51,33.85-57.32,55.75-10.63,14.71-21.31,29.49-30.49,45.11-6.76,11.52-11.17,24.43-16.52,36.77-1.76,4.06-3.26,8.23-4.71,12.41-2.13,6.16-4.52,12.28-6.03,18.6-1.9,7.95-3.01,16.08-4.49,24.13-.12,.64-.48,1.24-.65,1.88-.92,3.48-2.2,6.92-2.63,10.46-.81,6.59-.96,13.26-1.73,19.86-.35,2.94,.6,4.02,3.32,4.02,.02,0,.03,0,.05,0,1.47,0,2.93,0,4.4,0,2.2,0,4.4,0,6.6,0,.03,.12,.06,.23,.09,.35,10.76-1.63,21.52-3.26,32.27-4.9,.33-.05,.64-.18,.95-.29,6.75-2.29,13.49-4.62,20.27-6.85,7.59-2.5,15.32-4.61,22.78-7.45,10.09-3.84,20.42-7.4,29.84-12.54,13.24-7.22,26.04-15.35,38.47-23.91,9.25-6.37,18.12-13.51,26.24-21.26,11.17-10.66,22.04-21.75,31.97-33.55,9.22-10.96,17.26-22.95,25.38-34.79,4.56-6.64,8.67-13.66,12.21-20.89,4.62-9.42,8.64-19.15,12.6-28.88,3.57-8.78,7.15-17.6,9.93-26.65,3.07-9.99,5.65-20.18,7.68-30.43,1.92-9.71,2.85-19.62,4.19-29.44,.11-.82,.02-1.67,.08-2.5,.21-2.83-1.03-4.08-3.61-4.08h0Z"/>
  </g>
  <g>
    <path d="M331.3,291.04c-1.59,0-2.64-.35-3.29-1.11-1.1-1.28-1.27-3.9-.56-8.75,.46-3.17,.86-6.41,1.23-9.54,.66-5.43,1.33-11.05,2.42-16.48,1-4.99,2.48-9.97,3.91-14.8,.82-2.77,1.67-5.63,2.42-8.47,.74-2.8,1.42-5.67,2.07-8.45,.82-3.46,1.66-7.03,2.63-10.5,1.27-4.54,2.88-9.2,4.76-13.85,1.38-3.41,3.04-6.78,4.64-10.04,.47-.95,.94-1.9,1.4-2.85,1.04-2.14,2.05-4.29,3.07-6.43,2.64-5.55,5.36-11.3,8.34-16.77l1.54-2.84c4.34-8.01,8.82-16.3,14.12-23.8,15.16-21.48,33.96-45.93,58.49-64.46,2.02-1.52,4.03-3.05,6.04-4.58,9.03-6.86,18.37-13.95,27.92-20.37,5.27-3.54,11.12-6.45,16.77-9.26,2.18-1.08,4.43-2.21,6.62-3.35l2.86-1.5c5.35-2.8,10.89-5.7,16.47-8.23,3.18-1.44,6.57-2.6,9.85-3.71,1.59-.54,3.18-1.08,4.75-1.65,1.85-.67,3.69-1.39,5.53-2.1,3.89-1.51,7.92-3.08,11.97-4.21,4.8-1.34,9.78-2.38,14.6-3.38,2.6-.54,5.29-1.1,7.93-1.71,1.43-.33,2.86-.74,4.25-1.13,1.53-.44,3.1-.89,4.67-1.23,2.02-.43,4.12-.73,6.14-1.03,.88-.13,1.75-.25,2.63-.39,1.94-.3,3.88-.58,5.83-.85,4.36-.61,8.87-1.24,13.24-2.21,1.51-.34,2.64-.49,3.56-.49,1.15,0,1.93,.25,2.47,.79,.82,.83,1.18,2.46,1.15,5.28-.02,1.49-.01,2.99,0,4.48v2.41s1.01,.27,1.01,.27c-.37,1.51-.75,3.01-1.13,4.52-1.07,4.27-2.18,8.69-3.19,13.06-.23,.98-.28,1.99-.33,2.97-.04,.83-.09,1.69-.24,2.5-.86,4.52-1.88,9.76-3.08,14.88-1.36,5.78-2.89,12.34-4.73,18.6-1.49,5.05-3.24,10.12-4.94,15.02-.41,1.18-.82,2.37-1.23,3.55-.34,1-.68,2.01-1.02,3.01-1.32,3.89-2.68,7.92-4.3,11.75-2.92,6.92-5.76,13.04-8.69,18.72-2.39,4.63-5.12,9.18-7.77,13.59l-1.62,2.7c-2.52,4.22-5.13,8.34-8.03,12.91-15.77,24.8-35.79,47.28-61.2,68.73-11.52,9.72-24.15,17.99-34.99,24.81-11.56,7.26-23.6,13.31-33.85,18.27-5,2.42-10.39,4.28-15.6,6.09-2.54,.88-5.17,1.79-7.72,2.75-3.8,1.43-7.58,2.91-11.36,4.38-1.67,.65-3.34,1.3-5.01,1.95-.11,.04-.22,.09-.33,.14-.18,.08-.36,.16-.52,.2-2.14,.45-4.27,.91-6.4,1.37-5.31,1.14-10.79,2.32-16.21,3.38-3.91,.77-7.91,1.47-11.78,2.15-7.14,1.26-14.51,2.56-21.67,4.29-2.92,.71-4.98,1.04-6.5,1.04Z"/>
    <path class="cls-1" d="M610.13,1h0c1.32,0,1.84,.37,2.11,.65,.71,.72,1.03,2.28,1.01,4.92-.02,1.49-.01,2.98,0,4.47,0,.68,0,1.36,0,2.03v.77l.74,.2,.16,.04c-.33,1.34-.67,2.68-1.01,4.02-1.07,4.28-2.18,8.7-3.19,13.08-.24,1.02-.29,2.06-.35,3.06-.05,.85-.09,1.66-.24,2.43-.86,4.53-1.88,9.78-3.07,14.86-1.36,5.79-2.9,12.35-4.73,18.58-1.48,5.05-3.24,10.11-4.94,15.02-.41,1.18-.82,2.35-1.22,3.53-.34,1-.68,1.99-1.02,2.99-1.32,3.89-2.68,7.91-4.29,11.73-2.92,6.91-5.76,13.02-8.68,18.68-2.38,4.62-5.11,9.17-7.76,13.57-.54,.9-1.08,1.79-1.61,2.69-2.5,4.19-5.12,8.32-8.02,12.9-15.74,24.76-35.73,47.21-61.1,68.62-11.5,9.7-24.11,17.96-34.94,24.76-11.54,7.25-23.57,13.29-33.8,18.25-4.97,2.41-10.35,4.27-15.54,6.06-2.54,.88-5.17,1.79-7.73,2.76-3.8,1.43-7.66,2.93-11.38,4.38-1.67,.65-3.33,1.3-5,1.94-.12,.05-.24,.1-.36,.15-.16,.07-.31,.14-.42,.16-2.14,.45-4.28,.91-6.41,1.37-5.3,1.14-10.78,2.32-16.19,3.38-3.91,.76-7.9,1.47-11.77,2.15-7.14,1.26-14.53,2.56-21.7,4.3-2.88,.7-4.9,1.02-6.38,1.02-1.88,0-2.56-.53-2.91-.94-.99-1.14-1.12-3.72-.44-8.36,.47-3.18,.86-6.42,1.24-9.55,.65-5.42,1.33-11.03,2.41-16.45,.99-4.96,2.47-9.94,3.89-14.75,.82-2.77,1.67-5.64,2.43-8.49,.74-2.81,1.42-5.68,2.08-8.45,.82-3.45,1.66-7.02,2.63-10.49,1.27-4.53,2.87-9.17,4.74-13.8,1.37-3.39,3.02-6.75,4.62-10,.47-.96,.94-1.91,1.4-2.87,1.04-2.14,2.06-4.29,3.08-6.44,2.63-5.55,5.35-11.28,8.32-16.74,.51-.95,1.03-1.89,1.54-2.84,4.33-8,8.81-16.27,14.09-23.75,15.14-21.45,33.91-45.87,58.38-64.35,2.01-1.52,4.02-3.05,6.03-4.57,9.03-6.86,18.37-13.95,27.91-20.36,5.24-3.52,11.07-6.42,16.71-9.23,2.18-1.09,4.44-2.21,6.63-3.35,.95-.49,1.9-.99,2.84-1.49,5.35-2.8,10.89-5.7,16.46-8.23,3.16-1.43,6.54-2.58,9.81-3.69,1.56-.53,3.18-1.08,4.76-1.66,1.86-.68,3.73-1.41,5.54-2.11,3.88-1.51,7.89-3.07,11.92-4.19,4.78-1.33,9.75-2.37,14.56-3.37,2.61-.54,5.3-1.11,7.95-1.71,1.45-.33,2.88-.74,4.27-1.14,1.52-.43,3.09-.88,4.64-1.22,2-.43,4.09-.73,6.11-1.02,.88-.13,1.76-.25,2.63-.39,1.94-.3,3.91-.58,5.83-.85,4.37-.61,8.88-1.25,13.27-2.22,1.46-.32,2.58-.48,3.45-.48M610.13,0c-1,0-2.21,.18-3.67,.51-6.26,1.39-12.68,2.07-19.03,3.06-2.94,.46-5.9,.79-8.8,1.42-3,.65-5.93,1.67-8.92,2.36-7.51,1.72-15.14,3.03-22.55,5.09-5.97,1.66-11.7,4.19-17.54,6.32-4.89,1.78-9.92,3.24-14.64,5.38-6.57,2.98-12.95,6.4-19.35,9.74-7.88,4.11-16.11,7.71-23.44,12.64-11.66,7.83-22.77,16.49-33.98,24.97-23.59,17.82-41.74,40.67-58.6,64.57-5.93,8.4-10.76,17.62-15.69,26.69-4.12,7.58-7.66,15.46-11.42,23.23-2.07,4.28-4.27,8.52-6.05,12.93-1.84,4.54-3.45,9.19-4.78,13.91-1.76,6.27-3.05,12.66-4.71,18.95-2.06,7.78-4.76,15.42-6.33,23.3-1.72,8.58-2.39,17.37-3.66,26.05-1.11,7.59-.24,10.44,4.34,10.44,1.68,0,3.86-.38,6.62-1.05,11.01-2.67,22.29-4.26,33.42-6.44,7.56-1.48,15.08-3.15,22.62-4.75,.32-.07,.62-.24,.93-.36,5.46-2.11,10.9-4.26,16.37-6.33,7.8-2.94,15.89-5.24,23.36-8.85,11.55-5.59,23.05-11.48,33.9-18.3,12.11-7.61,24.14-15.64,35.05-24.85,23.66-19.97,44.6-42.58,61.3-68.85,2.72-4.28,5.44-8.57,8.04-12.92,3.22-5.39,6.53-10.74,9.4-16.31,3.16-6.12,6.03-12.41,8.71-18.75,2.04-4.82,3.63-9.83,5.33-14.79,2.12-6.18,4.33-12.33,6.17-18.59,1.81-6.14,3.28-12.39,4.74-18.63,1.16-4.94,2.13-9.92,3.08-14.9,.34-1.79,.17-3.68,.57-5.45,1.39-6.03,2.94-12.03,4.43-18.04-.37-.1-.74-.2-1.11-.3,0-2.17-.02-4.33,0-6.5C614.3,1.8,613.27,0,610.13,0h0Z"/>
  </g>
  <g>
    <path d="M288.42,290.55c-1.17-.07-2.28-.13-3.37-.18-2.73-.14-5.31-.27-7.83-.57l-2.94-.35c-5.66-.67-11.52-1.37-17.17-2.54-5.98-1.25-12-2.82-17.82-4.34-2.57-.67-5.14-1.34-7.72-1.99-.35-.09-.7-.17-1.04-.25-.61-.14-1.23-.28-1.82-.46l-5.4-1.66c-5.88-1.81-11.95-3.67-17.9-5.6-4.18-1.35-8.33-2.86-12.34-4.48-1.5-.61-3.01-1.21-4.52-1.81-5.56-2.21-11.32-4.49-16.74-7.19-6.78-3.37-15.64-7.93-24.07-13.41l-1.8-1.17c-11-7.14-22.38-14.53-32.6-22.95-10.57-8.7-20.35-18.74-29.81-28.45l-1.11-1.13c-12.97-13.31-23.17-26.28-31.18-39.65-1.89-3.16-3.87-6.34-5.79-9.41-3.99-6.39-8.12-13.01-11.63-19.78-4.21-8.12-7.7-16.79-11.09-25.18-.59-1.46-1.17-2.91-1.76-4.37-3.46-8.52-6.68-17.31-9.79-25.82l-.63-1.72c-.28-.77-.33-1.64-.38-2.57-.04-.75-.08-1.53-.26-2.28-.59-2.5-1.36-5-2.11-7.42l-.17-.56c-.12-.4-.33-.76-.53-1.11-.22-.38-.42-.74-.48-1.08-.36-2.24-.74-4.48-1.11-6.72-1.15-6.89-2.34-14.02-3.22-21.06-.62-4.98-.94-10.04-1.28-15.4-.15-2.33-.3-4.73-.48-7.23,.87,.08,1.78,.16,2.72,.24,2.74,.24,5.84,.5,8.86,.93,1.68,.24,3.39,.61,5.04,.97,2.17,.48,4.42,.97,6.67,1.16,1.36,.12,2.76,.14,4.1,.16,4.29,.06,8.34,.12,11.85,3.08,.21,.17,.46,.22,.65,.25,2.39,.45,4.73,.87,7.08,1.3,5.31,.96,10.79,1.95,16.13,3.15,4.99,1.12,10.17,2.66,15.85,4.69,4.03,1.44,8.02,3.25,11.88,5,.85,.38,1.7,.77,2.54,1.15,1.87,.83,3.73,1.66,5.6,2.49,6.39,2.84,13.01,5.77,19.37,8.92l.62,.31c6.78,3.35,13.78,6.82,20.05,11.11,2.06,1.41,4.13,2.82,6.2,4.22,11.15,7.58,22.69,15.41,32.88,24.39,16.07,14.17,29.44,27.7,40.88,41.38,8.79,10.51,16.18,22.52,23.32,34.13,1.52,2.46,3.03,4.93,4.56,7.37,4.99,8.01,9.68,16.91,13.94,26.46,2.35,5.27,4.19,10.88,5.97,16.31,.92,2.8,1.86,5.69,2.87,8.5,1.34,3.74,2.79,7.51,4.19,11.16,.56,1.47,1.13,2.93,1.68,4.4,.08,.21,.19,.41,.3,.62,.13,.24,.25,.46,.29,.67,.5,2.4,.94,4.86,1.37,7.24,.92,5.12,1.88,10.41,3.44,15.44,2.65,8.54,3.28,17.44,3.9,26.05,.24,3.33,.48,6.77,.84,10.16,.14,1.3,.66,2.56,1.31,4.15,.28,.68,.59,1.43,.91,2.28Z"/>
    <path class="cls-1" d="M1.08,1.23c.69,.06,1.41,.12,2.14,.19,2.73,.23,5.83,.5,8.83,.92,1.66,.23,3.36,.61,5,.97,2.19,.48,4.45,.98,6.73,1.17,1.38,.12,2.78,.14,4.14,.16,4.2,.06,8.16,.12,11.54,2.97,.31,.26,.67,.33,.93,.37,2.34,.44,4.69,.87,7.03,1.29,5.3,.96,10.78,1.95,16.11,3.15,4.97,1.12,10.13,2.65,15.79,4.68,4.01,1.44,8,3.24,11.85,4.98,.85,.38,1.69,.77,2.54,1.15,1.87,.84,3.74,1.67,5.62,2.5,6.39,2.83,12.99,5.76,19.34,8.91l.62,.31c6.76,3.34,13.76,6.8,19.99,11.08,2.06,1.41,4.13,2.82,6.2,4.22,11.14,7.57,22.66,15.39,32.83,24.36,16.05,14.15,29.4,27.66,40.83,41.32,8.77,10.48,16.14,22.47,23.27,34.07,1.52,2.47,3.03,4.93,4.56,7.38,4.98,7.99,9.66,16.87,13.91,26.4,2.34,5.24,4.17,10.85,5.95,16.26,.92,2.8,1.87,5.69,2.88,8.52,1.34,3.75,2.79,7.53,4.19,11.18,.56,1.46,1.12,2.93,1.68,4.4,.1,.25,.22,.48,.33,.68,.11,.2,.21,.39,.24,.53,.5,2.39,.94,4.85,1.37,7.23,.93,5.13,1.88,10.44,3.45,15.5,2.63,8.48,3.27,17.36,3.88,25.94,.24,3.33,.48,6.78,.84,10.17,.15,1.37,.68,2.66,1.35,4.28,.2,.48,.41,.99,.63,1.55-.89-.05-1.75-.09-2.59-.14-2.72-.14-5.3-.27-7.8-.57-.98-.12-1.96-.23-2.94-.35-5.66-.67-11.5-1.36-17.13-2.54-5.97-1.24-11.98-2.81-17.8-4.33-2.53-.66-5.15-1.34-7.73-1.99-.35-.09-.7-.17-1.06-.25-.62-.14-1.21-.27-1.79-.45-1.8-.56-3.6-1.11-5.4-1.66-5.88-1.81-11.95-3.67-17.9-5.6-4.17-1.35-8.31-2.85-12.31-4.47-1.51-.61-3.02-1.21-4.53-1.81-5.55-2.2-11.29-4.48-16.69-7.17-6.77-3.36-15.61-7.92-24.02-13.38l-1.81-1.17c-10.99-7.13-22.35-14.51-32.55-22.91-10.55-8.69-20.32-18.71-29.77-28.41l-1.11-1.14c-12.95-13.28-23.12-26.22-31.11-39.56-1.89-3.16-3.88-6.34-5.79-9.41-3.99-6.39-8.11-12.99-11.61-19.75-4.19-8.09-7.69-16.75-11.06-25.13-.59-1.46-1.18-2.92-1.77-4.37-3.45-8.5-6.66-17.27-9.76-25.76l-.64-1.76c-.26-.7-.3-1.54-.35-2.42-.04-.77-.08-1.57-.27-2.36-.6-2.52-1.37-5.02-2.11-7.44l-.18-.57c-.14-.46-.37-.86-.57-1.21-.19-.34-.38-.66-.42-.91-.36-2.24-.74-4.48-1.11-6.73-1.15-6.89-2.34-14.01-3.21-21.03-.62-4.97-.94-10.02-1.27-15.37-.14-2.14-.27-4.35-.44-6.63M0,.13c.63,8.53,.89,15.92,1.8,23.24,1.16,9.3,2.83,18.54,4.33,27.8,.13,.79,.78,1.47,1.02,2.26,.81,2.63,1.63,5.27,2.27,7.95,.38,1.6,.1,3.39,.65,4.9,3.37,9.22,6.72,18.46,10.42,27.55,4.05,9.96,7.93,20.06,12.87,29.58,5.21,10.05,11.6,19.48,17.43,29.22,8.73,14.58,19.45,27.63,31.25,39.74,9.97,10.23,19.96,20.56,30.96,29.62,10.8,8.89,22.69,16.51,34.45,24.15,7.7,5.01,15.88,9.35,24.12,13.44,6.89,3.42,14.15,6.12,21.3,9.01,4.07,1.64,8.2,3.14,12.38,4.49,7.74,2.51,15.53,4.86,23.31,7.26,.95,.29,1.93,.47,2.89,.71,8.52,2.14,16.98,4.55,25.56,6.34,6.63,1.38,13.41,2.09,20.15,2.9,3.74,.45,7.53,.52,12,.81-1.19-3.31-2.26-5.12-2.47-7.03-1.29-12.14-1.06-24.4-4.76-36.31-2.28-7.33-3.23-15.08-4.8-22.64-.1-.48-.44-.9-.61-1.36-1.97-5.18-4-10.34-5.87-15.56-2.96-8.28-5.29-16.84-8.86-24.85-4.06-9.11-8.7-18.06-13.97-26.52-8.84-14.17-17.26-28.83-27.92-41.56-12.42-14.85-26.39-28.61-40.93-41.43-12.08-10.65-25.79-19.51-39.12-28.65-6.49-4.44-13.66-7.95-20.73-11.46-8.21-4.06-16.63-7.68-24.99-11.42-4.78-2.14-9.54-4.39-14.46-6.16-5.2-1.86-10.52-3.5-15.91-4.71-7.67-1.73-15.45-2.98-23.18-4.44-.16-.03-.35-.06-.47-.16-4.82-4.06-10.66-2.87-16.24-3.36-3.92-.34-7.76-1.58-11.68-2.13C7.91,.75,3.59,.48,0,.13H0Z"/>
  </g>
  <g>
    <path d="M580.79,612.36c-.17-.04-.34-.08-.51-.12-.32-.08-.64-.16-.97-.22-2.59-.45-5.19-.86-7.78-1.27-5.88-.93-11.96-1.89-17.82-3.32-3.7-.9-7.33-2.45-10.84-3.94-1.93-.82-3.92-1.67-5.91-2.41-1.7-.63-3.46-1.18-5.17-1.72-2.43-.76-4.94-1.55-7.28-2.57-2.18-.94-4.36-1.88-6.54-2.81-8.64-3.7-17.58-7.53-26-11.99-12.59-6.67-23.67-13.3-33.87-20.27-21.13-14.45-40.72-32.53-58.24-53.75-10.54-12.77-19.8-26.94-27.65-39.21-5.85-9.14-11.39-19.26-17.96-32.8-2.32-4.79-4.08-9.97-5.77-14.98-.92-2.72-1.87-5.53-2.91-8.26-1.33-3.51-2.8-7.04-4.22-10.45-.69-1.66-1.38-3.31-2.06-4.97-.2-.5-.37-.91-.45-1.32-1.44-7.21-2.88-14.42-4.3-21.62-1.77-8.96-6.79-34.39-6.79-34.39l-.15-.72c-.12-.57-.24-1.13-.32-1.7-.62-4.45-.81-6.67,.09-7.7,.6-.69,1.81-.97,4.19-.97,.83,0,1.84,.03,3.29,.11,3.81,.19,7.67,.92,11.4,1.63,1.8,.34,3.66,.69,5.49,.98l1.31,.21c1.85,.3,3.77,.62,5.67,.71,.94,.05,1.88,.06,2.83,.08,4.38,.07,8.51,.14,12.12,3.09,.53,.44,1.25,.53,1.95,.62,.23,.03,.45,.06,.66,.1,2.21,.44,4.47,.82,6.66,1.19,4.82,.81,9.81,1.66,14.5,3.12,6.63,2.08,13.2,4.81,19.54,7.45,2,.83,4.01,1.67,6.01,2.48,1.2,.49,2.4,.97,3.61,1.46,5.55,2.23,11.29,4.53,16.72,7.21,8.26,4.08,15.24,7.96,21.34,11.87,1.71,1.09,3.42,2.18,5.13,3.27,9.28,5.89,18.87,11.99,27.44,19l.88,.72c13.95,11.43,28.38,23.24,39.5,38.08,3.35,4.47,6.96,8.87,10.46,13.12,4.66,5.68,9.48,11.55,13.74,17.66,5.14,7.39,9.63,15.43,13.97,23.2,1.36,2.44,2.73,4.88,4.11,7.31,4.29,7.51,7.39,13.37,10.06,18.99,1.24,2.61,2.16,5.44,3.05,8.18,.5,1.55,1.03,3.15,1.6,4.71,.84,2.26,1.71,4.5,2.58,6.75,1.28,3.31,2.61,6.72,3.8,10.12,1.29,3.7,2.92,8.59,4.06,13.59,1.65,7.25,3.06,14.51,4.66,23.17,1.29,7,2.63,14.5,3.64,21.91,.31,2.29,.35,4.67,.38,6.98,.02,1.46,.04,2.97,.14,4.46,.09,1.52-.13,2.54-.68,3.13-.44,.47-1.13,.69-2.11,.69-.42,0-.9-.04-1.42-.13-2.07-.33-4.21-.4-6.27-.46-.92-.03-1.83-.06-2.75-.11l-.43-.02-.26,1.23-19.15-4.34Z"/>
    <path class="cls-1" d="M331.55,329.36c.82,0,1.82,.03,3.26,.1,3.77,.19,7.61,.92,11.33,1.62,1.8,.34,3.67,.7,5.51,.99,.43,.07,.86,.14,1.29,.21,1.87,.31,3.8,.62,5.74,.72,.95,.05,1.91,.06,2.84,.08,4.29,.07,8.34,.13,11.81,2.98,.64,.53,1.47,.63,2.2,.73,.22,.03,.43,.05,.63,.09,2.21,.44,4.48,.82,6.67,1.19,4.81,.81,9.78,1.65,14.43,3.11,6.61,2.07,13.16,4.79,19.5,7.43,2,.83,4.01,1.67,6.02,2.48,1.2,.49,2.4,.97,3.6,1.45,5.55,2.23,11.28,4.53,16.7,7.2,8.25,4.07,15.21,7.94,21.3,11.84,1.71,1.1,3.43,2.19,5.15,3.28,9.26,5.88,18.84,11.96,27.38,18.96l.87,.71c13.93,11.41,28.34,23.21,39.43,38,3.36,4.48,6.97,8.88,10.47,13.14,4.66,5.67,9.47,11.53,13.71,17.62,5.13,7.36,9.61,15.39,13.94,23.15,1.34,2.4,2.73,4.89,4.12,7.32,4.28,7.5,7.38,13.35,10.04,18.96,1.22,2.58,2.14,5.39,3.03,8.12,.51,1.55,1.03,3.16,1.61,4.73,.84,2.26,1.72,4.54,2.58,6.75,1.28,3.3,2.61,6.72,3.79,10.11,1.29,3.69,2.91,8.56,4.04,13.54,1.65,7.25,3.05,14.49,4.65,23.15,1.29,6.98,2.62,14.46,3.64,21.89,.31,2.26,.34,4.63,.38,6.92,.02,1.47,.04,2.98,.14,4.48,.08,1.36-.1,2.28-.54,2.76-.34,.36-.91,.53-1.74,.53-.39,0-.84-.04-1.34-.12-2.1-.33-4.25-.4-6.33-.47-.9-.03-1.83-.06-2.74-.11l-.86-.05-.18,.84-.07,.31-4.16-.94-14.49-3.28c-.17-.04-.34-.08-.5-.12-.32-.08-.65-.16-1-.23-2.59-.45-5.23-.87-7.78-1.27-5.88-.93-11.95-1.89-17.79-3.31-3.66-.89-7.27-2.43-10.76-3.92-1.93-.82-3.93-1.67-5.93-2.41-1.71-.63-3.48-1.19-5.19-1.73-2.42-.76-4.91-1.54-7.24-2.55-2.17-.94-4.35-1.87-6.52-2.81-8.64-3.7-17.58-7.53-25.98-11.98-12.58-6.66-23.64-13.29-33.82-20.24-21.09-14.42-40.65-32.47-58.13-53.66-10.52-12.74-19.77-26.9-27.62-39.17-5.76-9-11.46-19.41-17.93-32.75-2.31-4.76-4.06-9.92-5.75-14.92-.92-2.72-1.88-5.54-2.91-8.28-1.34-3.53-2.81-7.07-4.24-10.49-.69-1.65-1.37-3.29-2.05-4.94l-.02-.06c-.17-.41-.33-.8-.4-1.17-1.44-7.21-2.88-14.41-4.3-21.62-1.72-8.67-3.43-17.35-5.14-26.02l-1.65-8.38c-.05-.24-.1-.48-.15-.72-.12-.58-.23-1.12-.31-1.67-.53-3.82-.82-6.39-.03-7.3,.49-.56,1.62-.8,3.81-.8m0-1c-5.76,0-5.84,1.56-4.77,9.24,.11,.82,.31,1.63,.47,2.45,2.26,11.46,4.52,22.93,6.79,34.39,1.43,7.21,2.86,14.42,4.3,21.62,.1,.48,.29,.95,.48,1.41,2.1,5.13,4.31,10.22,6.27,15.41,2.94,7.75,5.1,15.86,8.7,23.28,5.45,11.23,11.27,22.36,17.99,32.85,8.63,13.48,17.52,26.94,27.69,39.26,16.94,20.53,36.3,38.78,58.34,53.85,10.86,7.43,22.28,14.14,33.92,20.3,10.52,5.57,21.63,10.07,32.57,14.82,4.02,1.75,8.35,2.77,12.48,4.3,5.62,2.08,11.03,4.95,16.8,6.36,8.42,2.05,17.08,3.11,25.64,4.6,.49,.09,.97,.23,1.46,.34,6.55,1.48,13.1,2.97,19.64,4.45,.09-.43,.19-.87,.28-1.3,2.99,.17,6.02,.1,8.97,.57,.55,.09,1.05,.13,1.5,.13,2.46,0,3.47-1.34,3.28-4.35-.24-3.82,0-7.7-.52-11.47-1.01-7.34-2.3-14.65-3.65-21.94-1.43-7.75-2.91-15.5-4.66-23.19-1.05-4.62-2.51-9.17-4.07-13.65-1.98-5.68-4.29-11.24-6.38-16.88-1.59-4.3-2.72-8.8-4.67-12.92-3.07-6.48-6.52-12.8-10.07-19.03-5.87-10.28-11.36-20.86-18.11-30.55-7.44-10.7-16.37-20.35-24.2-30.79-11.39-15.19-26-27.03-40.46-38.88-10.16-8.32-21.53-15.2-32.62-22.31-6.86-4.39-14.08-8.29-21.39-11.9-6.61-3.26-13.52-5.91-20.36-8.68-8.48-3.44-16.88-7.21-25.6-9.94-6.85-2.15-14.12-2.93-21.21-4.33-.82-.16-1.82-.14-2.4-.61-4.54-3.72-9.97-3.03-15.24-3.28-2.32-.11-4.63-.55-6.93-.91-5.65-.89-11.27-2.33-16.95-2.62-1.27-.06-2.37-.11-3.31-.11h0Z"/>
  </g>
</svg>